<svg width="38" height="26" viewBox="0 0 38 26" fill="none" xmlns="http://www.w3.org/2000/svg">
<rect x="0.339286" y="0.482108" width="37.3214" height="25.1071" rx="2.375" fill="white"/>
<rect x="0.339286" y="0.482108" width="37.3214" height="25.1071" rx="2.375" stroke="#E6ECF2" stroke-width="0.678571"/>
<g clip-path="url(#clip0_2168_26561)">
<path d="M26.1156 8.92505L25.5123 10.2875H26.7222L26.1156 8.92505ZM19.154 9.76931C19.2678 9.71402 19.3347 9.59375 19.3347 9.4444C19.3347 9.29805 19.2644 9.19206 19.1507 9.14225C19.0471 9.08703 18.8878 9.08066 18.735 9.08066H17.6557V9.83976H18.7205C18.891 9.8398 19.0335 9.83747 19.154 9.76931ZM5.32403 8.92505L4.72757 10.2875H5.92408L5.32403 8.92505ZM33.0944 17.6531H31.4017V16.92H33.0875C33.2547 16.92 33.3717 16.8996 33.4422 16.8354C33.5088 16.7781 33.5465 16.6971 33.5458 16.6125C33.5458 16.5129 33.5033 16.4338 33.4387 16.3865C33.3752 16.3343 33.2825 16.3105 33.1298 16.3105C32.3068 16.2845 31.2801 16.3342 31.2801 15.2525C31.2801 14.7567 31.6179 14.2348 32.5377 14.2348H34.2837V13.5547H32.6615C32.172 13.5547 31.8163 13.664 31.5645 13.8339V13.5547H29.1651C28.7815 13.5547 28.3312 13.6433 28.1182 13.8339V13.5547H23.8333V13.8339C23.4923 13.6046 22.9169 13.5547 22.6514 13.5547H19.8252V13.8339C19.5555 13.5904 18.9554 13.5547 18.5899 13.5547H15.4268L14.7031 14.2847L14.0252 13.5547H9.30018V18.3248H13.936L14.6818 17.5831L15.3843 18.3248L18.2418 18.3272V17.2051H18.5229C18.902 17.2107 19.3491 17.1964 19.7438 17.0374V18.3247H22.1008V17.0814H22.2144C22.3595 17.0814 22.3739 17.0871 22.3739 17.2222V18.3244H29.5341C29.9887 18.3244 30.4639 18.2161 30.727 18.0191V18.3244H32.9982C33.4708 18.3244 33.9324 18.2627 34.2836 18.1046V17.216C34.0707 17.5062 33.6557 17.6533 33.0943 17.6533L33.0944 17.6531ZM18.5604 16.5268H17.4667V17.6733H15.7631L14.6838 16.5418L13.5621 17.6733H10.0902V14.255H13.6156L14.6939 15.3755L15.8088 14.255H18.6096C19.3052 14.255 20.0867 14.4345 20.0867 15.3811C20.0867 16.3307 19.3266 16.5268 18.5604 16.5268ZM23.8195 16.3718C23.9433 16.5386 23.9611 16.6944 23.9647 16.9957V17.6734H23.0846V17.2457C23.0846 17.0401 23.106 16.7355 22.943 16.5766C22.8151 16.4542 22.6197 16.425 22.2999 16.425H21.3632V17.6734H20.4825V14.255H22.506C22.9499 14.255 23.273 14.2734 23.5607 14.4163C23.8373 14.5721 24.0114 14.7855 24.0114 15.1754C24.0113 15.721 23.6209 15.9993 23.3902 16.0848C23.5852 16.1519 23.7446 16.2722 23.8195 16.3718ZM27.4402 14.962H25.3876V15.5834H27.39V16.2809H25.3876V16.961L27.4402 16.964V17.6733H24.5147V14.255H27.4402V14.962ZM29.6925 17.6733H27.9854V16.9403H29.6857C29.852 16.9403 29.9699 16.9198 30.0437 16.8556C30.104 16.8027 30.1473 16.7259 30.1473 16.6328C30.1473 16.5331 30.1004 16.454 30.0403 16.4066C29.9733 16.3545 29.8807 16.3309 29.7282 16.3309C28.9085 16.3047 27.8819 16.3544 27.8819 15.2727C27.8819 14.7769 28.2162 14.255 29.1351 14.255H30.8924V14.9825H29.2844C29.125 14.9825 29.0214 14.9882 28.9333 15.0444C28.8372 15.0998 28.8016 15.1818 28.8016 15.2902C28.8016 15.4191 28.8832 15.5069 28.9934 15.5448C29.0859 15.5748 29.1851 15.5836 29.3345 15.5836L29.8064 15.5956C30.282 15.6062 30.6088 15.6831 30.8073 15.8704C30.9779 16.035 31.0695 16.2428 31.0695 16.5946C31.0694 17.33 30.5764 17.6733 29.6925 17.6733ZM22.8944 15.0171C22.7885 14.9585 22.6322 14.9553 22.4762 14.9553H21.3969V15.723H22.4618C22.6323 15.723 22.7773 15.7174 22.8944 15.6526C23.008 15.5886 23.076 15.4707 23.076 15.3245C23.076 15.1783 23.008 15.0725 22.8944 15.0171ZM32.6878 14.9553C32.5284 14.9553 32.4223 14.9609 32.3331 15.017C32.2406 15.0725 32.2051 15.1545 32.2051 15.263C32.2051 15.3918 32.2832 15.4796 32.3967 15.5176C32.4893 15.5476 32.5884 15.5564 32.7344 15.5564L33.2096 15.5681C33.6889 15.5792 34.009 15.6561 34.2041 15.8434C34.2397 15.8694 34.261 15.8986 34.2854 15.928V14.9553H32.6879L32.6878 14.9553ZM18.5907 14.9553H17.4479V15.8259H18.5806C18.9173 15.8259 19.1268 15.6701 19.1269 15.3744C19.1268 15.0755 18.9072 14.9553 18.5907 14.9553ZM10.9632 14.9553V15.5768H12.8874V16.2742H10.9632V16.9543H13.1182L14.1194 15.9515L13.1607 14.9553H10.9632ZM16.5904 17.3457V14.6052L15.2447 15.9534L16.5904 17.3457ZM11.0368 11.8574V12.4464H18.3597L18.3563 11.2004H18.498C18.5973 11.2036 18.6261 11.2121 18.6261 11.3648V12.4465H22.4136V12.1564C22.7191 12.3089 23.1942 12.4465 23.8195 12.4465H25.4128L25.7539 11.6874H26.5099L26.8434 12.4465H29.9139V11.7254L30.3787 12.4464H32.8394V7.68018H30.4043V8.24308L30.0633 7.68018H27.5646V8.24308L27.2515 7.68018H23.8763C23.3113 7.68018 22.8148 7.75366 22.4136 7.9585V7.68018H20.0844V7.9585C19.829 7.74737 19.4812 7.68018 19.0945 7.68018H10.5851L10.0142 8.91128L9.42786 7.68018H6.74768V8.24308L6.45319 7.68018H4.16744L3.106 9.94642V11.7592L4.67556 8.34161H5.97789L7.46854 11.5773V8.34161H8.89919L10.0463 10.66L11.1001 8.34161H12.5594V11.7592H11.661L11.6577 9.0826L10.3867 11.7592H9.61709L8.34283 9.08023V11.7592H6.55996L6.22317 10.9969H4.39818L4.05791 11.7592H3.10596V12.4467H4.60364L4.94131 11.6876H5.69739L6.03417 12.4467H8.98082V11.8663L9.24381 12.4491H10.7735L11.0365 11.8575L11.0368 11.8574ZM22.5762 8.73997C22.8594 8.4672 23.3033 8.34142 23.9073 8.34142H24.7558V9.0737H23.9251C23.6054 9.0737 23.4246 9.11802 23.2507 9.2762C23.1012 9.42006 22.9987 9.69209 22.9987 10.0503C22.9987 10.4164 23.0768 10.6804 23.2396 10.8529C23.3746 10.9881 23.6199 11.0291 23.8506 11.0291H24.2444L25.4796 8.34153H26.7929L28.2769 11.574V8.34157H29.6115L31.1523 10.7217V8.34157H32.0501V11.759H30.808L29.1466 9.194V11.759H27.3615L27.0204 10.9967H25.1996L24.8687 11.759H23.8429C23.4169 11.759 22.8775 11.6712 22.572 11.381C22.2639 11.0909 22.1038 10.6978 22.1038 10.0764C22.1036 9.56945 22.1993 9.10612 22.5762 8.73997ZM20.7733 8.34146H21.6676V11.759H20.7733V8.34146ZM16.7411 8.34146H18.7571C19.2049 8.34146 19.5351 8.35254 19.8185 8.50515C20.0958 8.65781 20.262 8.88068 20.262 9.26181C20.262 9.80675 19.8718 10.0882 19.6445 10.1728C19.8362 10.2408 20.0001 10.361 20.0782 10.4606C20.202 10.6306 20.2233 10.7824 20.2233 11.0876V11.759H19.3392L19.3359 11.328C19.3359 11.1223 19.357 10.8266 19.1976 10.6623C19.0695 10.5421 18.8742 10.5159 18.5586 10.5159H17.6177V11.759H16.7412L16.7411 8.34146ZM13.2076 8.34146H16.1357V9.05313H14.0842V9.66915H16.0865V10.3697H14.0842V11.0522H16.1357V11.759H13.2076V8.34146Z" fill="#3285D2"/>
</g>
<defs>
<clipPath id="clip0_2168_26561">
<rect width="31.1795" height="11.9011" fill="white" transform="translate(3.10596 7.08508)"/>
</clipPath>
</defs>
</svg>
