<svg width="38" height="27" viewBox="0 0 38 27" fill="none" xmlns="http://www.w3.org/2000/svg">
<rect x="0.339286" y="0.910697" width="37.3214" height="25.1071" rx="2.375" fill="white"/>
<rect x="0.339286" y="0.910697" width="37.3214" height="25.1071" rx="2.375" stroke="#E6ECF2" stroke-width="0.678571"/>
<path d="M8.4328 10.2947C8.74503 10.1871 9.08022 10.131 9.42919 10.131C10.9536 10.131 12.2255 11.235 12.5148 12.6992L14.6729 12.2501C14.177 9.76145 12.0189 7.88562 9.42919 7.88562C8.83686 7.88562 8.2675 7.98386 7.73486 8.16629L8.4328 10.2947Z" fill="black"/>
<path d="M5.88461 17.4237L7.34476 15.7397C6.69274 15.1502 6.28408 14.2942 6.28408 13.3352C6.28408 12.3809 6.69274 11.5202 7.34476 10.9355L5.88461 9.2561C4.77801 10.2572 4.08008 11.712 4.08008 13.3399C4.08008 14.9631 4.77801 16.4226 5.88461 17.4237Z" fill="black"/>
<path d="M12.515 13.9806C12.2211 15.4448 10.9538 16.5441 9.42939 16.5441C9.08042 16.5441 8.74523 16.4879 8.4284 16.3803L7.73047 18.5088C8.2631 18.6912 8.83706 18.7895 9.42939 18.7895C12.0191 18.7895 14.1772 16.9183 14.6731 14.4297L12.515 13.9806Z" fill="black"/>
<path d="M21.8633 15.4872C21.5052 15.8427 21.0231 16.0579 20.4904 16.0485C20.123 16.0438 19.7833 15.9316 19.4986 15.7445L18.7823 16.9046C19.2735 17.218 19.8475 17.4051 20.4721 17.4145C21.3766 17.4285 22.203 17.0636 22.8046 16.4695L21.8633 15.4872ZM20.5685 10.7578C18.7685 10.7298 17.2808 12.1986 17.2532 14.0324C17.2441 14.72 17.4369 15.3656 17.7813 15.8988L23.6954 13.3213C23.3648 11.8758 22.0975 10.7859 20.5685 10.7578H20.5685ZM18.6078 14.2943C18.5986 14.2194 18.5941 14.1399 18.5941 14.0604C18.6124 12.9798 19.4849 12.1144 20.5455 12.1331C21.1241 12.1424 21.6383 12.4091 21.9827 12.8301L18.6078 14.2943ZM25.555 9.26086V15.6836L26.6479 16.1467L26.129 17.4144L25.0454 16.956C24.802 16.8484 24.6367 16.6847 24.5127 16.4976C24.3933 16.3104 24.3015 16.0484 24.3015 15.7023V9.26086H25.555ZM29.4993 12.2313C29.6922 12.1658 29.8942 12.1331 30.1101 12.1331C31.0421 12.1331 31.8136 12.8067 31.9927 13.7002L33.3104 13.4242C33.0074 11.9039 31.6896 10.7625 30.1101 10.7625C29.7473 10.7625 29.3984 10.8233 29.0769 10.9309L29.4993 12.2313ZM27.9427 16.5771L28.8335 15.5526C28.4341 15.1924 28.1861 14.6685 28.1861 14.0838C28.1861 13.499 28.4386 12.9751 28.8335 12.6196L27.9427 11.5951C27.2678 12.2033 26.8407 13.0967 26.8407 14.0884C26.8407 15.0802 27.2678 15.9689 27.9427 16.5771ZM31.9927 14.4813C31.8136 15.3749 31.0375 16.0484 30.1101 16.0484C29.8989 16.0484 29.6922 16.011 29.4993 15.9456L29.0723 17.246C29.3984 17.3582 29.7473 17.4191 30.1101 17.4191C31.6896 17.4191 33.0074 16.2777 33.3104 14.7574L31.9927 14.4813Z" fill="black"/>
</svg>
