<svg width="38" height="27" viewBox="0 0 38 27" fill="none" xmlns="http://www.w3.org/2000/svg">
<rect x="0.339286" y="0.696463" width="37.3214" height="25.1071" rx="2.375" fill="white"/>
<rect x="0.339286" y="0.696463" width="37.3214" height="25.1071" rx="2.375" stroke="#E6ECF2" stroke-width="0.678571"/>
<path d="M7.00391 9.56873V16.7482H8.61091V13.7488H11.2489V16.7482H12.8438V9.56873H11.2489V12.3301H8.61091V9.56873H7.00391Z" fill="#ED6C05"/>
<path d="M26.6728 14.6711C26.7083 14.4616 26.7247 14.2492 26.7218 14.0366C26.7218 12.7424 26.0962 11.4354 24.4275 11.4354C24.0736 11.4307 23.7225 11.5005 23.3965 11.6404C23.0705 11.7802 22.7766 11.987 22.5333 12.2478C22.2901 12.5086 22.1028 12.8176 21.9832 13.1555C21.8636 13.4934 21.8143 13.8527 21.8385 14.2109C21.8385 15.8413 22.8326 16.8617 24.5751 16.8617C25.2113 16.8725 25.8439 16.7629 26.4404 16.5384L26.2317 15.443C25.7712 15.5893 25.2906 15.6608 24.808 15.6547C24.0596 15.6547 23.4098 15.3313 23.3608 14.6594H26.6734L26.6728 14.6711ZM23.3602 13.5666C23.3613 13.297 23.4632 13.0378 23.6454 12.8415C23.8275 12.6452 24.0763 12.5262 24.3416 12.5087C24.4719 12.511 24.6002 12.5411 24.7183 12.597C24.8364 12.6529 24.9417 12.7333 25.0272 12.833C25.1128 12.9327 25.1767 13.0495 25.215 13.1759C25.2532 13.3022 25.2648 13.4353 25.2491 13.5666H23.3602Z" fill="#ED6C05"/>
<path d="M27.2382 16.7493H28.8331V14.1107C28.8318 13.9894 28.8442 13.8684 28.87 13.7499C28.923 13.5027 29.0626 13.2833 29.2628 13.1324C29.463 12.9814 29.7103 12.9091 29.959 12.9289C30.1029 12.9318 30.2464 12.9443 30.3886 12.9663V11.4476C30.2798 11.4253 30.1686 11.4169 30.0577 11.4224C29.7459 11.434 29.4454 11.543 29.1971 11.7346C28.9488 11.9262 28.7651 12.1909 28.6709 12.4926H28.634L28.585 11.5341H27.2134C27.2382 11.9821 27.2503 12.4797 27.2503 13.2523V16.75L27.2382 16.7493Z" fill="#ED6C05"/>
<path fill-rule="evenodd" clip-rule="evenodd" d="M14.4766 9.28296C14.6392 9.28296 14.7981 9.33187 14.9334 9.4235C15.0686 9.51513 15.174 9.64537 15.2362 9.79775C15.2985 9.95013 15.3147 10.1178 15.283 10.2796C15.2513 10.4413 15.173 10.5899 15.058 10.7065C14.943 10.8232 14.7965 10.9026 14.637 10.9348C14.4775 10.967 14.3121 10.9505 14.1619 10.8873C14.0116 10.8242 13.8832 10.7173 13.7929 10.5802C13.7025 10.443 13.6543 10.2818 13.6543 10.1169C13.6543 10.0074 13.6756 9.89893 13.7169 9.79775C13.7582 9.69657 13.8188 9.60465 13.8951 9.52721C13.9715 9.44977 14.0621 9.38835 14.1619 9.34644C14.2616 9.30453 14.3686 9.28296 14.4766 9.28296Z" fill="#FFE700"/>
<path fill-rule="evenodd" clip-rule="evenodd" d="M17.8514 15.5421H18.6488C18.7968 15.5599 18.9468 15.5453 19.0887 15.4994C19.2307 15.4535 19.3613 15.3773 19.4718 15.2759C19.5822 15.1745 19.67 15.0503 19.7292 14.9116C19.7884 14.7729 19.8175 14.623 19.8148 14.4719C19.8148 13.9245 19.7778 12.6923 18.7862 12.6923C17.6451 12.6923 17.829 14.2227 17.829 15.0192C17.829 15.1935 17.8417 15.3678 17.8538 15.5421H17.8514ZM13.6548 11.535H15.2987V14.4719C15.2842 14.6076 15.2981 14.7449 15.3397 14.8748C15.3814 15.0046 15.4496 15.1241 15.5401 15.2252C15.6305 15.3263 15.7411 15.4068 15.8645 15.4615C15.9879 15.5161 16.1213 15.5435 16.2559 15.5421C16.2559 14.2227 16.2559 12.8537 16.2069 11.535H17.5815C17.6057 11.7836 17.642 12.045 17.6675 12.2941C18.3179 10.9748 20.355 11.2736 21.0418 12.3812C21.7533 13.5263 21.999 16.8117 18.6488 16.8117H17.8756C17.8883 17.4866 17.8883 18.1432 17.8883 18.8152H16.2438C16.2438 18.1807 16.2438 17.5081 16.2559 16.8117C14.4764 16.7994 13.6669 15.6666 13.6669 14.4719V11.535H13.6548Z" fill="#ED6C05"/>
</svg>
