<svg width="83" height="22" viewBox="0 0 83 22" xmlns="http://www.w3.org/2000/svg">
<path d="M46.8289 21.4311H50.5326C50.5686 21.4337 50.6048 21.4289 50.6389 21.417C50.673 21.4052 50.7043 21.3866 50.731 21.3623C50.7577 21.338 50.7791 21.3085 50.794 21.2757C50.8089 21.2429 50.8169 21.2073 50.8176 21.1713V10.9614C50.8176 8.06614 52.2426 6.54059 54.7028 6.54059C57.163 6.54059 58.562 8.06614 58.562 10.9614V21.1726C58.5627 21.2086 58.5707 21.2442 58.5856 21.277C58.6005 21.3098 58.6219 21.3393 58.6486 21.3636C58.6753 21.3879 58.7066 21.4065 58.7407 21.4183C58.7748 21.4302 58.811 21.4349 58.847 21.4324H62.5507C62.5867 21.4349 62.6228 21.4302 62.6569 21.4183C62.691 21.4065 62.7224 21.3879 62.749 21.3636C62.7757 21.3393 62.7971 21.3098 62.812 21.277C62.8269 21.2442 62.8349 21.2086 62.8357 21.1726V10.9873C62.8357 6.61788 60.4015 2.79199 54.7022 2.79199C49.0029 2.79199 46.5439 6.61788 46.5439 10.9873V21.1726C46.5448 21.2085 46.553 21.2439 46.568 21.2766C46.5829 21.3093 46.6044 21.3386 46.631 21.3627C46.6577 21.3869 46.6889 21.4054 46.723 21.4172C46.757 21.4289 46.793 21.4336 46.8289 21.4311Z" fill="white"/>
<path d="M21.3423 21.6642C22.6892 21.6642 23.5695 21.509 23.958 21.3538C24.0159 21.3307 24.0661 21.2917 24.1028 21.2414C24.1396 21.1911 24.1613 21.1314 24.1656 21.0693V18.0169C24.1656 17.8357 24.0875 17.7325 23.8545 17.7325C23.673 17.7325 23.155 17.8357 22.7406 17.8357C21.1347 17.8357 20.4359 17.2415 20.4359 15.8452V7.23872H23.8545C23.9299 7.23805 24.002 7.20786 24.0553 7.15466C24.1086 7.10146 24.1388 7.0295 24.1395 6.95427V3.61936C24.1388 3.54413 24.1086 3.47217 24.0553 3.41897C24.002 3.36577 23.9299 3.33558 23.8545 3.3349H20.3064V0.439674C20.3064 0.129239 20.1762 0 19.9433 0H16.4465C16.1622 0 16.0327 0.129888 16.0327 0.439674V16.2862C16.0327 20.1387 18.1819 21.6642 21.3423 21.6642Z" fill="white"/>
<path d="M6.47621 21.8707C10.6464 21.8707 13.6252 19.3112 13.6252 15.9763C13.6252 12.2277 11.1383 11.1425 7.74568 10.4183L6.06173 10.0566C4.7929 9.77214 4.09342 9.17725 4.09342 8.16931C4.09342 6.87691 5.38827 6.17875 7.17569 6.17875C9.68796 6.17875 11.3973 7.31593 11.6563 7.31593C11.7282 7.31116 11.7976 7.28703 11.8569 7.24609C11.9163 7.20516 11.9634 7.14895 11.9933 7.08343L12.6668 4.57592C12.7969 4.23951 12.7702 4.16222 12.5366 4.03298C11.0342 3.25755 9.42834 2.81787 7.14901 2.81787C2.92741 2.81787 0 5.2481 0 8.47974C0 11.5321 2.35741 13.2103 5.72598 13.9351L7.43531 14.2968C8.80824 14.5813 9.58255 15.1242 9.58255 16.2874C9.58255 17.4765 8.65013 18.5104 6.44823 18.5104C3.33994 18.5104 1.21612 17.27 0.879717 17.27C0.672151 17.27 0.594721 17.3733 0.517291 17.709L0.0767797 19.8035C-0.0533562 20.2425 0.07678 20.527 0.361777 20.6562C1.42434 21.2504 4.32506 21.8707 6.47621 21.8707Z" fill="white"/>
<path d="M34.7334 18.2774C32.0135 18.2774 29.5279 16.2349 29.5279 12.383C29.5279 8.53115 32.0142 6.538 34.7334 6.538C37.4786 6.538 39.9134 8.52855 39.9134 12.383C39.9134 16.2609 37.4786 18.2774 34.7334 18.2774ZM34.7334 22C40.1724 22 44.135 17.9416 44.135 12.383C44.135 6.8244 40.1724 2.79199 34.7334 2.79199C29.3197 2.79199 25.3311 6.82505 25.3311 12.383C25.3311 17.941 29.3197 22 34.7334 22Z" fill="white"/>
<path d="M82.9997 12.1765C82.9997 6.46136 79.7099 2.79199 74.4759 2.79199C69.5548 2.79199 65.3071 6.56657 65.3071 12.3057C65.3071 18.4326 69.6582 22 74.3203 22C78.2316 22 80.4881 20.4615 81.8838 18.5878C82.1539 18.2248 82.2092 18.0683 82.2092 17.9669C82.2092 17.8656 82.1441 17.7864 81.9092 17.5773L80.2773 16.1556C79.8869 15.8199 79.7568 15.716 79.6266 15.716C79.4965 15.716 79.4191 15.7939 79.3156 15.9231C78.2016 17.4227 76.6478 18.2754 74.55 18.2754C71.9037 18.2754 70.1404 16.481 69.6927 13.5702H81.645C82.4786 13.5721 82.9997 13.3104 82.9997 12.1765ZM74.3223 6.38538C77.1488 6.38538 78.6447 8.2889 78.7261 10.3925H69.7558C70.2471 8.13369 71.7833 6.38538 74.3223 6.38538Z" fill="white"/>
</svg>
