<svg width="38" height="26" viewBox="0 0 38 26" fill="none" xmlns="http://www.w3.org/2000/svg">
<rect x="0.339286" y="0.339286" width="37.3214" height="25.1071" rx="2.375" fill="white"/>
<rect x="0.339286" y="0.339286" width="37.3214" height="25.1071" rx="2.375" stroke="#E6ECF2" stroke-width="0.678571"/>
<path d="M22.2396 7.19067H15.7588V18.5913H22.2396V7.19067Z" fill="#FF5F00"/>
<path d="M16.1704 12.8944C16.1695 11.7966 16.4237 10.713 16.9138 9.72561C17.404 8.73821 18.1171 7.87287 18.9993 7.19508C17.9066 6.35452 16.5944 5.83183 15.2127 5.68675C13.8309 5.54166 12.4353 5.78002 11.1854 6.3746C9.93545 6.96918 8.88163 7.89599 8.14436 9.04909C7.40709 10.2022 7.01611 11.5351 7.01611 12.8954C7.01611 14.2557 7.40709 15.5886 8.14436 16.7417C8.88163 17.8948 9.93545 18.8216 11.1854 19.4162C12.4353 20.0108 13.8309 20.2491 15.2127 20.104C16.5944 19.959 17.9066 19.4363 18.9993 18.5957C18.1168 17.9177 17.4035 17.052 16.9134 16.0643C16.4233 15.0765 16.1692 13.9925 16.1704 12.8944Z" fill="#EB001B"/>
<path d="M30.2819 17.3856V17.152H30.3786V17.1036H30.1338V17.152H30.2305V17.3856H30.2819ZM30.7572 17.3856V17.1036H30.6831L30.5967 17.305L30.5103 17.1036H30.4362V17.3856H30.4877V17.1721L30.5679 17.3554H30.6234L30.7037 17.1721V17.3856H30.7572Z" fill="#F79E1B"/>
<path d="M30.9833 12.8921C30.9833 14.2525 30.5922 15.5855 29.8548 16.7386C29.1174 17.8918 28.0634 18.8186 26.8133 19.4131C25.5633 20.0076 24.1675 20.2458 22.7857 20.1005C21.4038 19.9552 20.0916 19.4322 18.999 18.5914C19.8809 17.913 20.5938 17.0474 21.0841 16.06C21.5743 15.0725 21.829 13.989 21.829 12.8911C21.829 11.7932 21.5743 10.7097 21.0841 9.72221C20.5938 8.73476 19.8809 7.86918 18.999 7.19079C20.0916 6.34997 21.4038 5.82703 22.7857 5.68173C24.1675 5.53643 25.5633 5.77465 26.8133 6.36914C28.0634 6.96364 29.1174 7.89043 29.8548 9.04357C30.5922 10.1967 30.9833 11.5297 30.9833 12.8901V12.8921Z" fill="#F79E1B"/>
</svg>
