<svg width="38" height="27" viewBox="0 0 38 27" fill="none" xmlns="http://www.w3.org/2000/svg">
<rect x="0.339286" y="1.12505" width="37.3214" height="25.1071" rx="2.375" fill="white"/>
<rect x="0.339286" y="1.12505" width="37.3214" height="25.1071" rx="2.375" stroke="#E6ECF2" stroke-width="0.678571"/>
<g clip-path="url(#clip0_2168_26525)">
<path d="M15.6968 8.91558L14.1199 18.4901H16.6409L18.219 8.91558H15.6968Z" fill="#1A1F71"/>
<path d="M23.4929 8.71985C24.4707 8.71985 25.2538 8.92801 25.7534 9.12198L25.4116 11.1971L25.1856 11.0866C24.7201 10.8926 24.1225 10.7065 23.2978 10.7198C22.3103 10.7198 21.8533 11.1453 21.8533 11.5433C21.8476 11.9918 22.3875 12.2874 23.2691 12.7303C24.7242 13.4137 25.3962 14.2425 25.3868 15.3317C25.3672 17.3192 23.646 18.603 20.9947 18.603C19.8635 18.5909 18.7742 18.3595 18.1851 18.0921L18.539 15.9488L18.8641 16.101C19.6925 16.4583 20.2288 16.6034 21.2382 16.6034C21.9632 16.6034 22.741 16.3103 22.7472 15.6685C22.752 15.2495 22.422 14.9503 21.4401 14.4808C20.4835 14.0229 19.2161 13.2554 19.2301 11.8796C19.2451 10.0184 21.0006 8.71985 23.4929 8.71985Z" fill="#1A1F71"/>
<path fill-rule="evenodd" clip-rule="evenodd" d="M30.295 8.91544H32.244L34.2854 18.4838H31.945C31.945 18.4838 31.7135 17.3843 31.6381 17.0491C31.4432 17.0491 30.6291 17.0479 29.8636 17.0468C29.1846 17.0459 28.544 17.045 28.4079 17.045C28.31 17.304 27.877 18.4838 27.877 18.4838H25.2285L28.9743 9.70943C29.2394 9.08594 29.6913 8.91544 30.295 8.91544ZM29.1518 15.0979H31.2454C31.1445 14.6187 30.6615 12.3332 30.6615 12.3332L30.4911 11.5077C30.4241 11.697 30.3308 11.9473 30.2597 12.1382C30.1957 12.3099 30.1497 12.4336 30.1567 12.4216C30.1567 12.4216 29.3605 14.546 29.1518 15.0979Z" fill="#1A1F71"/>
<path d="M9.50943 15.4448L11.9787 8.91544L14.6506 8.91534L10.6798 18.4718L8.01118 18.4748L5.77312 10.1752C4.99354 9.72562 4.10289 9.36447 3.10596 9.11477L3.13819 8.91556H7.20531C7.75311 8.93669 8.19603 9.1179 8.34866 9.72418L9.20657 13.9924C9.22055 14.0344 9.23383 14.0762 9.24638 14.118L9.50943 15.4448Z" fill="#1A1F71"/>
</g>
<defs>
<clipPath id="clip0_2168_26525">
<rect width="31.1795" height="9.91758" fill="white" transform="translate(3.10596 8.71985)"/>
</clipPath>
</defs>
</svg>
